HIERARCHY
ROOT Hips
{
	OFFSET 0.00000 0.00000 0.00000
	CHANNELS 6 Xposition Yposition Zposition Zrotation Yrotation Xrotation 
	JOINT LHipJoint
	{
		OFFSET 0 0 0
		CHANNELS 3 Zrotation Yrotation Xrotation
		JOINT LeftHip
		{
			OFFSET 1.52977 -1.71332 0.88991
			CHANNELS 3 Zrotation Yrotation Xrotation
			JOINT LeftKnee
			{
				OFFSET 2.23949 -6.15296 0.00000
				CHANNELS 3 Zrotation Yrotation Xrotation
				JOINT LeftAnkle
				{
					OFFSET 2.68396 -7.37412 0.00000
					CHANNELS 3 Zrotation Yrotation Xrotation
					JOINT LeftToe
					{
						OFFSET 0.20538 -0.56428 2.52710
						CHANNELS 3 Zrotation Yrotation Xrotation
						End Site
						{
							OFFSET 0.00000 -0.00000 1.29919
						}
					}
				}
			}
		}
	}
	JOINT RHipJoint
	{
		OFFSET 0 0 0
		CHANNELS 3 Zrotation Yrotation Xrotation
		JOINT RightHip
		{
			OFFSET -1.45689 -1.71333 0.88991
			CHANNELS 3 Zrotation Yrotation Xrotation
			JOINT RightKnee
			{
				OFFSET -2.36700 -6.50329 0.00000
				CHANNELS 3 Zrotation Yrotation Xrotation
				JOINT RightAnkle
				{
					OFFSET -2.69814 -7.41308 0.00000
					CHANNELS 3 Zrotation Yrotation Xrotation
					JOINT RightToe
					{
						OFFSET -0.18734 -0.51471 2.37479
						CHANNELS 3 Zrotation Yrotation Xrotation
						End Site
						{
							OFFSET -0.00000 -0.00000 1.22113
						}
					}
				}
			}
		}
	}
	JOINT lowerback
	{
		OFFSET 0 0 0
		CHANNELS 3 Zrotation Yrotation Xrotation
		JOINT Chest
		{
			OFFSET 0.04294 2.14638 -0.31163
			CHANNELS 3 Zrotation Yrotation Xrotation
			JOINT Chest2
			{
				OFFSET -0.00400 2.17216 0.01486
				CHANNELS 3 Zrotation Yrotation Xrotation
				JOINT lowerneck
				{
					OFFSET 0 0 0
					CHANNELS 3 Zrotation Yrotation Xrotation
					JOINT Neck
					{
						OFFSET 0.03869 1.76598 0.14916
						CHANNELS 3 Zrotation Yrotation Xrotation
						JOINT Head
						{
							OFFSET -0.00760 1.75513 -0.18948
							CHANNELS 3 Zrotation Yrotation Xrotation
							End Site
							{
								OFFSET -0.00601 1.82444 -0.08310
							}
						}
					}
				}
				JOINT LeftCollar
				{
					OFFSET 0 0 0
					CHANNELS 3 Zrotation Yrotation Xrotation
					JOINT LeftShoulder
					{
						OFFSET 3.73696 0.92058 0.01733
CHANNELS 3 Zrotation Xrotation Yrotation
						JOINT LeftElbow
						{
OFFSET 0 -5.227710 0.000000
CHANNELS 3 Zrotation Xrotation Yrotation
							JOINT LeftWrist
							{
OFFSET 0 -3.452510 0.000000
CHANNELS 3 Zrotation Xrotation Yrotation
								JOINT lhand
								{
									OFFSET 0 0 0
CHANNELS 3 Zrotation Xrotation Yrotation
									JOINT LFingers
									{
OFFSET 0 -0.552120 0.000000
CHANNELS 3 Zrotation Xrotation Yrotation
										End Site
										{
OFFSET 0 -0.445130 0.000000
										}
									}
								}
								JOINT LThumb
								{
OFFSET 0 0.000000 0.000000
CHANNELS 3 Zrotation Xrotation Yrotation
									End Site
									{
OFFSET 0 -0.451930 0.451930
									}
								}
							}
						}
					}
				}
				JOINT RightCollar
				{
					OFFSET 0 0 0
					CHANNELS 3 Zrotation Yrotation Xrotation
					JOINT RightShoulder
					{
						OFFSET -3.63819 0.83094 -0.13694
CHANNELS 3 Zrotation Xrotation Yrotation
						JOINT RightElbow
						{
OFFSET 0 -5.239800 -0.000000
CHANNELS 3 Zrotation Xrotation Yrotation
							JOINT RightWrist
							{
OFFSET 0 -3.480420 -0.000000
CHANNELS 3 Zrotation Xrotation Yrotation
								JOINT rhand
								{
									OFFSET 0 0 0
CHANNELS 3 Zrotation Xrotation Yrotation
									JOINT RFingers
									{
OFFSET 0 -0.618710 0.000000
CHANNELS 3 Zrotation Xrotation Yrotation
										End Site
										{
OFFSET 0 -0.498820 0.000000
										}
									}
								}
								JOINT RThumb
								{
OFFSET 0 0.000000 0.000000
CHANNELS 3 Zrotation Xrotation Yrotation
									End Site
									{
OFFSET 0 -0.506440 0.506440
									}
								}
							}
						}
					}
				}
			}
		}
	}
}
MOTION
Frames: 10
Frame Time: 0.008333333333333333
-18.188703 17.841914 -4.949593 285.701025 89.564828 305.131197 0.000000 0.000000 0.000000 -24.714119 -1.069714 -40.296564 3.546559 11.531292 34.093317 0.106725 -3.140243 8.148059 2.659107 -10.121489 -29.371199 0.000000 0.000000 0.000000 15.022645 12.875829 -38.025965 -13.276486 -18.879556 69.982026 -0.101988 -6.107472 6.624722 -0.206620 2.921757 -8.061359 0.856298 -0.927929 21.257528 -2.078305 -0.542653 8.270314 -2.593964 0.022177 -2.920907 2.900979 -0.961006 4.141524 2.597089 0.042501 -21.705256 0.323712 -0.200627 -7.336655 0.000000 0.000000 0.000000 3.312908 4.458425 -23.842133 17.421394 -27.410014 4.279562 21.022252 -18.327240 -12.523902 0.000000 0.000000 0.000000 -7.125000 0.000000 0.000000 -5.690279 43.293581 -0.240462 0.000000 0.000000 0.000000 0.187771 0.143480 30.692342 -16.384717 -26.039589 -3.813282 -21.555567 5.496814 9.036024 0.000000 0.000000 0.000000 7.125000 0.000000 0.000000 4.690245 39.641080 0.621067
-17.986790 17.858110 -4.950208 320.794227 89.644938 340.105871 0.000000 0.000000 0.000000 -24.975547 -0.652837 -39.462311 3.527411 11.503414 33.997082 0.097741 -3.230104 7.996443 2.744842 -10.269959 -29.855499 0.000000 0.000000 0.000000 14.309560 13.560401 -39.979623 -13.422288 -18.929353 70.432035 0.002536 -6.300833 4.316914 -0.285683 3.435877 -9.494922 0.703919 -0.921905 21.288215 -2.128835 -0.564602 8.281738 -2.556132 0.010767 -2.924062 2.895336 -0.922088 4.157492 2.530599 0.077379 -21.641914 0.300390 -0.178498 -7.318395 0.000000 0.000000 0.000000 3.307008 4.440864 -23.805737 17.400444 -27.382693 4.269887 20.976465 -18.279279 -12.573737 0.000000 0.000000 0.000000 -7.125000 0.000000 0.000000 -5.740537 43.341220 -0.235818 0.000000 0.000000 0.000000 0.254688 0.267207 30.647657 -16.266327 -25.880376 -3.761494 -21.506988 5.533852 9.077602 0.000000 0.000000 0.000000 7.125000 0.000000 0.000000 4.737784 39.681430 0.622672
-17.782705 17.872398 -4.950679 356.943967 89.613933 376.127648 0.000000 0.000000 0.000000 -25.230948 -0.258834 -38.584997 3.506017 11.472235 33.889800 0.090874 -3.258406 7.840441 2.780083 -10.330239 -30.052973 0.000000 0.000000 0.000000 13.617199 14.160521 -41.832590 -13.404963 -18.923497 70.378527 0.081258 -6.630716 2.150030 -0.325391 3.666264 -10.139732 0.579915 -0.934599 21.287079 -2.174983 -0.604270 8.304188 -2.525505 -0.008383 -2.900199 2.884438 -0.889062 4.180528 2.465761 0.106409 -21.611976 0.279038 -0.159015 -7.312330 0.000000 0.000000 0.000000 3.292698 4.430009 -23.752000 17.375236 -27.349785 4.258320 20.945501 -18.212619 -12.616342 0.000000 0.000000 0.000000 -7.125000 0.000000 0.000000 -5.776125 43.382822 -0.231340 0.000000 0.000000 0.000000 0.307199 0.391598 30.609950 -16.131306 -25.698341 -3.702749 -21.469956 5.611171 9.105238 0.000000 0.000000 0.000000 7.125000 0.000000 0.000000 4.773453 39.707820 0.624290
-17.576451 17.883425 -4.950498 380.767270 89.525158 399.816407 0.000000 0.000000 0.000000 -25.487947 0.152147 -37.701525 3.486400 11.443627 33.791098 0.085387 -3.243752 7.679183 2.789723 -10.346640 -30.106681 0.000000 0.000000 0.000000 12.969836 14.686235 -43.552600 -13.212848 -18.857455 69.785178 0.132352 -6.897180 0.046589 -0.341226 3.753592 -10.384450 0.501541 -0.969921 21.243449 -2.210126 -0.661776 8.347834 -2.504899 -0.034931 -2.833237 2.886968 -0.859018 4.182124 2.392096 0.132824 -21.608613 0.252625 -0.140348 -7.311249 0.000000 0.000000 0.000000 3.273189 4.407036 -23.710352 17.351394 -27.318676 4.247374 20.967849 -18.148927 -12.670797 0.000000 0.000000 0.000000 -7.125000 0.000000 0.000000 -5.765687 43.442666 -0.222424 0.000000 0.000000 0.000000 0.341168 0.493703 30.569877 -15.982549 -25.496905 -3.638427 -21.403410 5.731772 9.101112 0.000000 0.000000 0.000000 7.125000 0.000000 0.000000 4.830704 39.698090 0.632984
-17.368256 17.892199 -4.949262 397.876449 89.432384 416.786691 0.000000 0.000000 0.000000 -25.757578 0.625840 -36.831117 3.465541 11.412996 33.685819 0.080162 -3.234984 7.527441 2.794108 -10.354077 -30.131176 0.000000 0.000000 0.000000 12.359308 15.185066 -45.134943 -12.876484 -18.736968 68.741332 0.159714 -7.101028 -1.910188 -0.349615 3.799299 -10.512689 0.450587 -1.021434 21.178598 -2.231238 -0.733447 8.401365 -2.481487 -0.067789 -2.745676 2.895537 -0.827087 4.162664 2.311415 0.161967 -21.617199 0.222618 -0.119856 -7.310323 0.000000 0.000000 0.000000 3.244941 4.389392 -23.678825 17.334062 -27.296055 4.239439 21.000583 -18.099042 -12.693286 0.000000 0.000000 0.000000 -7.125000 0.000000 0.000000 -5.740087 43.470063 -0.217461 0.000000 0.000000 0.000000 0.355854 0.586431 30.517313 -15.830797 -25.290647 -3.573390 -21.293996 5.881703 9.080194 0.000000 0.000000 0.000000 7.125000 0.000000 0.000000 4.922921 39.666857 0.648914
-17.157624 17.900767 -4.946041 410.624077 89.345818 429.390083 0.000000 0.000000 0.000000 -26.026468 1.199177 -35.955423 3.432250 11.363833 33.517117 0.075352 -3.253918 7.409079 2.795400 -10.356265 -30.138295 0.000000 0.000000 0.000000 11.792192 15.697723 -46.521397 -12.377886 -18.545007 67.180777 0.170282 -7.349555 -3.547837 -0.346324 3.781303 -10.462214 0.413050 -1.083196 21.111593 -2.232671 -0.814704 8.454215 -2.442812 -0.105665 -2.658112 2.906837 -0.793608 4.129947 2.226876 0.192913 -21.627585 0.190742 -0.097948 -7.307551 0.000000 0.000000 0.000000 3.205551 4.402480 -23.660705 17.332922 -27.294596 4.238864 21.022528 -18.061114 -12.669862 0.000000 0.000000 0.000000 -7.125000 0.000000 0.000000 -5.716019 43.447692 -0.219759 0.000000 0.000000 0.000000 0.350299 0.682883 30.440492 -15.681760 -25.087225 -3.509958 -21.148331 6.041125 9.057032 0.000000 0.000000 0.000000 7.125000 0.000000 0.000000 5.046347 39.630512 0.669802
-16.943481 17.912043 -4.941134 421.542972 89.249002 440.144881 0.000000 0.000000 0.000000 -26.296557 1.847320 -34.996979 3.373065 11.275715 33.215673 0.071811 -3.282086 7.333160 2.800754 -10.365308 -30.168091 0.000000 0.000000 0.000000 11.246685 16.215018 -47.677351 -11.738931 -18.276850 65.157533 0.179010 -7.707238 -4.803041 -0.323504 3.655388 -10.109038 0.362485 -1.149592 21.059394 -2.222935 -0.903967 8.504916 -2.383186 -0.147995 -2.580231 2.911500 -0.760048 4.105535 2.150352 0.225208 -21.642631 0.162525 -0.075791 -7.307733 0.000000 0.000000 0.000000 3.157450 4.451614 -23.663476 17.349042 -27.315641 4.246288 21.037378 -18.032981 -12.623961 0.000000 0.000000 0.000000 -7.125000 0.000000 0.000000 -5.694501 43.400884 -0.225477 0.000000 0.000000 0.000000 0.331747 0.788754 30.328419 -15.532008 -24.881959 -3.446730 -21.002270 6.200870 9.046139 0.000000 0.000000 0.000000 7.125000 0.000000 0.000000 5.171511 39.607141 0.689497
-16.725345 17.928339 -4.934524 430.610768 89.129618 449.027820 0.000000 0.000000 0.000000 -26.563894 2.529856 -33.893752 3.275974 11.128848 32.715711 0.071277 -3.284953 7.322255 2.819281 -10.396608 -30.270744 0.000000 0.000000 0.000000 10.716749 16.712455 -48.572302 -10.965259 -17.916548 62.666814 0.193582 -8.162248 -5.642465 -0.289520 3.459705 -9.561492 0.288322 -1.215478 21.021059 -2.208469 -0.996523 8.555724 -2.304424 -0.192348 -2.508681 2.908480 -0.731847 4.099174 2.091217 0.253889 -21.670541 0.141561 -0.056620 -7.315401 0.000000 0.000000 0.000000 3.106574 4.522728 -23.682384 17.370333 -27.343453 4.256030 21.027700 -17.999367 -12.582835 0.000000 0.000000 0.000000 -7.125000 0.000000 0.000000 -5.695847 43.356369 -0.231840 0.000000 0.000000 0.000000 0.310369 0.896222 30.146838 -15.370858 -24.660249 -3.379173 -20.894364 6.364519 8.994382 0.000000 0.000000 0.000000 7.125000 0.000000 0.000000 5.258123 39.543598 0.709377
-16.504157 17.949152 -4.926343 437.743082 88.984423 455.961703 0.000000 0.000000 0.000000 -26.821934 3.195656 -32.630334 3.139986 10.917925 32.003917 0.076100 -3.204000 7.382972 2.850396 -10.448834 -30.442713 0.000000 0.000000 0.000000 10.196427 17.169265 -49.223851 -10.082924 -17.453096 59.761061 0.216617 -8.663288 -6.098946 -0.261030 3.286415 -9.077263 0.191962 -1.275875 20.993466 -2.198035 -1.085917 8.604433 -2.218304 -0.235559 -2.443958 2.906481 -0.715096 4.126202 2.052038 0.273165 -21.724232 0.127819 -0.044237 -7.337648 0.000000 0.000000 0.000000 3.063453 4.591945 -23.705291 17.373572 -27.347613 4.257507 20.987799 -17.962957 -12.574935 0.000000 0.000000 0.000000 -7.125000 0.000000 0.000000 -5.730532 43.343672 -0.235071 0.000000 0.000000 0.000000 0.300227 0.998665 29.892125 -15.201371 -24.425892 -3.308819 -20.843919 6.533404 8.950629 0.000000 0.000000 0.000000 7.125000 0.000000 0.000000 5.296006 39.493068 0.721102
-16.280846 17.971641 -4.917537 442.397786 88.815611 460.424818 0.000000 0.000000 0.000000 -27.081629 3.835932 -31.252633 2.974493 10.653520 31.120287 0.085873 -3.021814 7.490250 2.896989 -10.526333 -30.698631 0.000000 0.000000 0.000000 9.668708 17.586166 -49.695810 -9.127806 -16.888340 56.529911 0.248178 -9.186822 -6.217395 -0.239873 3.151927 -8.701974 0.080575 -1.322743 20.954703 -2.198644 -1.161568 8.649019 -2.138709 -0.272502 -2.377002 2.912136 -0.710548 4.171631 2.026635 0.280262 -21.791374 0.118031 -0.039884 -7.367710 0.000000 0.000000 0.000000 3.029914 4.634484 -23.703427 17.335899 -27.298388 4.240271 20.898482 -17.914325 -12.586727 0.000000 0.000000 0.000000 -7.125000 0.000000 0.000000 -5.813182 43.346318 -0.238092 0.000000 0.000000 0.000000 0.304424 1.096110 29.580245 -15.034129 -24.193605 -3.239902 -20.847385 6.728611 8.959548 0.000000 0.000000 0.000000 7.125000 0.000000 0.000000 5.294087 39.502822 0.719616
